<?xml version="1.0" encoding="UTF-8" standalone="no"?>
<!-- Created with Inkscape (http://www.inkscape.org/) -->

<svg
   xmlns:dc="http://purl.org/dc/elements/1.1/"
   xmlns:cc="http://creativecommons.org/ns#"
   xmlns:rdf="http://www.w3.org/1999/02/22-rdf-syntax-ns#"
   xmlns:svg="http://www.w3.org/2000/svg"
   xmlns="http://www.w3.org/2000/svg"
   xmlns:sodipodi="http://sodipodi.sourceforge.net/DTD/sodipodi-0.dtd"
   xmlns:inkscape="http://www.inkscape.org/namespaces/inkscape"
   width="1000"
   height="1000"
   viewBox="0 0 264.58333 264.58333"
   version="1.1"
   id="svg11440"
   inkscape:version="0.92.2 2405546, 2018-03-11"
   sodipodi:docname="logo.svg">
  <defs
     id="defs11434" />
  <sodipodi:namedview
     id="base"
     pagecolor="#ffffff"
     bordercolor="#666666"
     borderopacity="1.0"
     inkscape:pageopacity="0.0"
     inkscape:pageshadow="2"
     inkscape:zoom="0.70710678"
     inkscape:cx="677.12405"
     inkscape:cy="269.87957"
     inkscape:document-units="px"
     inkscape:current-layer="layer1"
     showgrid="true"
     units="px"
     borderlayer="true"
     inkscape:showpageshadow="false"
     inkscape:pagecheckerboard="true"
     inkscape:window-width="1920"
     inkscape:window-height="1039"
     inkscape:window-x="0"
     inkscape:window-y="41"
     inkscape:window-maximized="0"
     fit-margin-top="0"
     fit-margin-left="0"
     fit-margin-right="0"
     fit-margin-bottom="0" />
  <metadata
     id="metadata11437">
    <rdf:RDF>
      <cc:Work
         rdf:about="">
        <dc:format>image/svg+xml</dc:format>
        <dc:type
           rdf:resource="http://purl.org/dc/dcmitype/StillImage" />
        <dc:title></dc:title>
      </cc:Work>
    </rdf:RDF>
  </metadata>
  <g
     inkscape:label="Layer 1"
     inkscape:groupmode="layer"
     id="layer1"
     transform="translate(4.5486111e-7,21.504661)">
    <g
       transform="matrix(1.0120195,0,0,1.0120195,-1.5900786,-55.900841)"
       id="g1020"
       style="fill:#ffffff;fill-opacity:1;stroke-width:0.98812324">
      <path
         inkscape:connector-curvature="0"
         d="m 132.29276,120.91068 c -24.13451,0 -43.796315,19.66405 -43.796315,43.79858 0,24.13451 19.661805,43.79631 43.796315,43.79631 24.13453,0 43.79858,-19.6618 43.79858,-43.79631 0,-24.13453 -19.66405,-43.79858 -43.79858,-43.79858 z m 0,9.17771 c 19.17431,0 34.62088,15.44656 34.62088,34.62087 0,19.17431 -15.44657,34.61861 -34.62088,34.61861 -19.17431,0 -34.618604,-15.4443 -34.618604,-34.61861 0,-19.17431 15.444294,-34.62087 34.618604,-34.62087 z m 0.001,-16.83391 -4.2821,2.65943 -78.567426,48.79462 82.847606,51.45286 82.84952,-51.45405 z m -0.002,10.6365 65.723,40.81755 -65.72108,40.81635 -65.72299,-40.81754 z"
         style="color:#000000;font-style:normal;font-variant:normal;font-weight:normal;font-stretch:normal;font-size:medium;line-height:normal;font-family:sans-serif;font-variant-ligatures:normal;font-variant-position:normal;font-variant-caps:normal;font-variant-numeric:normal;font-variant-alternates:normal;font-feature-settings:normal;text-indent:0;text-align:start;text-decoration:none;text-decoration-line:none;text-decoration-style:solid;text-decoration-color:#000000;letter-spacing:normal;word-spacing:normal;text-transform:none;writing-mode:lr-tb;direction:ltr;text-orientation:mixed;dominant-baseline:auto;baseline-shift:baseline;text-anchor:start;white-space:normal;shape-padding:0;clip-rule:nonzero;display:inline;overflow:visible;visibility:visible;opacity:1;isolation:auto;mix-blend-mode:normal;color-interpolation:sRGB;color-interpolation-filters:linearRGB;solid-color:#000000;solid-opacity:1;vector-effect:none;fill:#ffffff;fill-opacity:1;fill-rule:nonzero;stroke:none;stroke-width:9.06909561;stroke-linecap:round;stroke-linejoin:miter;stroke-miterlimit:4;stroke-dasharray:none;stroke-dashoffset:0;stroke-opacity:1;paint-order:markers fill stroke;color-rendering:auto;image-rendering:auto;shape-rendering:auto;text-rendering:auto;enable-background:accumulate"
         id="path3386" />
      <path
         style="fill:#ffffff;fill-opacity:1;stroke:none;stroke-width:0.85730726px;stroke-linecap:butt;stroke-linejoin:miter;stroke-opacity:1"
         d="m 223.67631,172.89247 c -2.66396,0.0379 -5.57233,0.74623 -8.51571,2.46242 l -74.2927,46.12926 0.72881,0.45283 c 2.09798,1.21328 4.8331,2.05356 7.89072,2.01009 2.66396,-0.0377 5.57233,-0.74672 8.51571,-2.46292 l 14.61543,-9.075 v 0.002 l 59.67309,-37.05637 -0.77994,-0.48466 c -2.09065,-1.19613 -4.80461,-2.02085 -7.83541,-1.97776 z"
         id="path3388"
         inkscape:connector-curvature="0" />
      <path
         style="fill:#ffffff;fill-opacity:1;stroke:none;stroke-width:0.85730726px;stroke-linecap:butt;stroke-linejoin:miter;stroke-opacity:1"
         d="m 115.10009,105.46952 c -2.66396,0.0378 -5.57233,0.74674 -8.51571,2.46294 l -14.615429,9.07497 v -0.005 l -59.677284,37.05896 c 3.86357,2.58028 10.407519,3.92273 17.135237,0 l 74.292706,-46.12924 -0.72881,-0.45283 c -2.09797,-1.2133 -4.8331,-2.05358 -7.89071,-2.01012 z"
         id="path3390"
         inkscape:connector-curvature="0" />
    </g>
    <path
       style="stroke-width:0.35943401;fill:#ffffff"
       d="m 132.29942,-21.507249 c -1.32461,0 -2.55576,0.684768 -3.24839,1.809708 l -6.87606,11.1104332 c -1.08197,0.0886 -2.16367,0.1968928 -3.23805,0.3157429 l -8.90591,-9.5529051 c -0.90249,-0.96564 -2.24249,-1.397876 -3.53932,-1.142566 -1.3019,0.26022 -2.37389,1.170076 -2.83652,2.413806 l -4.562512,12.2049398 c -1.056719,0.3031198 -2.103551,0.6244732 -3.147612,0.9529132 L 85.36843,-11.006599 c -1.074375,-0.776099 -2.475002,-0.940617 -3.698481,-0.429947 -1.221017,0.50568 -2.098053,1.6132908 -2.310452,2.9176509 L 77.261433,4.3506035 C 76.29073,4.8534634 75.3298,5.3719816 74.371685,5.9003784 L 62.505745,0.49037395 C 61.299917,-0.06101585 59.894535,0.05316773 58.797443,0.79164758 57.695218,1.5247077 57.050333,2.7809234 57.100905,4.1030733 l 0.455272,13.0591517 c -0.844323,0.67518 -1.681261,1.365242 -2.507859,2.062922 L 42.330231,16.226881 c -1.291769,-0.30102 -2.646881,0.08403 -3.582209,1.019058 -0.940398,0.937871 -1.32188,2.289924 -1.018543,3.581694 l 2.995684,12.720671 c -0.694875,0.82414 -1.382786,1.658359 -2.057757,2.502689 L 25.607738,35.59624 c -1.317018,-0.0352 -2.575763,0.594 -3.311425,1.696022 -0.738125,1.097089 -0.849123,2.502524 -0.300757,3.710884 l 5.409487,11.869044 c -0.526076,0.952979 -1.04625,1.91347 -1.549258,2.889229 l -12.867431,2.092894 c -1.306954,0.212399 -2.408994,1.086972 -2.917135,2.310455 -0.505679,1.226069 -0.3413929,2.624111 0.429431,3.698481 l 7.611939,10.571964 c -0.331263,1.044001 -0.651876,2.093018 -0.955497,3.149679 L 4.9521518,82.14792 c -1.2386651,0.46277 -2.1513223,1.534631 -2.4091553,2.836522 -0.258112,1.299368 0.1743938,2.636435 1.1425661,3.541384 L 13.2333,97.429158 c -0.118856,1.07437 -0.225021,2.156537 -0.315743,3.235982 L 1.8102248,107.5412 C 0.68535176,108.23607 -6.8229166e-7,109.46496 -6.8229166e-7,110.79217 c 0,1.32715 0.68527646229166,2.55576 1.81022548229166,3.24838 l 11.1073322,6.87555 c 0.09072,1.08197 0.196887,2.16159 0.315743,3.23597 l -9.5477374,8.90592 c -0.9681723,0.90248 -1.4004001,2.24249 -1.1425661,3.53932 0.258118,1.3019 1.1704902,2.3709 2.4091553,2.836 l 12.2049402,4.56303 c 0.303128,1.05673 0.624519,2.10562 0.955497,3.14968 l -7.611939,10.57455 c -0.7735708,1.07691 -0.9375659,2.47489 -0.429431,3.6959 0.508495,1.22608 1.612765,2.10065 2.919719,2.31045 l 12.864847,2.0929 c 0.502863,0.97577 1.018401,1.93679 1.549258,2.89491 l -5.409487,11.86336 c -0.55139,1.20583 -0.437722,2.60872 0.300757,3.71088 0.738125,1.10469 1.994338,1.74964 3.311425,1.69654 l 13.054501,-0.45785 c 0.680101,0.84938 1.365236,1.68067 2.062924,2.50734 l -2.995684,12.72325 c -0.30313,1.28923 0.07786,2.6366 1.018543,3.57446 0.932865,0.94293 2.29044,1.3198 3.582209,1.01647 l 12.718087,-2.99568 c 0.82667,0.70261 1.663536,1.38533 2.507859,2.05776 l -0.455272,13.06173 c -0.04925,1.32208 0.594075,2.57589 1.696022,3.31401 1.097161,0.73566 2.50299,0.84694 3.708818,0.29611 l 11.86594,-5.40742 c 0.955514,0.531 1.916512,1.04669 2.889748,1.54977 l 2.098064,12.86227 c 0.212399,1.30949 1.086971,2.41671 2.310452,2.91972 1.221018,0.50778 2.624106,0.34397 3.698481,-0.42685 l 10.571448,-7.61659 c 1.04399,0.33125 2.093545,0.65474 3.150195,0.95808 l 4.562517,12.19977 c 0.46276,1.23875 1.53468,2.1564 2.83652,2.40916 1.29935,0.26305 2.63682,-0.17158 3.53931,-1.14257 l 8.90592,-9.54825 c 1.07438,0.12379 2.15608,0.22784 3.23805,0.32349 l 6.87606,11.10785 c 0.69277,1.11988 1.9237,1.80972 3.24838,1.80972 1.32461,0 2.55575,-0.68759 3.25097,-1.80972 l 6.87606,-11.10785 c 1.08197,-0.0964 2.16108,-0.1997 3.23546,-0.32349 l 8.90334,9.54825 c 0.90249,0.97071 2.24248,1.40555 3.53931,1.14257 1.30189,-0.25529 2.37395,-1.17041 2.83652,-2.40916 l 4.56252,-12.19977 c 1.05665,-0.30313 2.10619,-0.62661 3.15019,-0.95808 l 10.57403,7.61659 c 1.07437,0.77103 2.47488,0.93526 3.6959,0.42685 1.22354,-0.50287 2.09812,-1.61276 2.31045,-2.91972 l 2.09858,-12.86227 c 0.97078,-0.50286 1.93111,-1.02651 2.88923,-1.54977 l 11.86595,5.40742 c 1.20582,0.55139 2.60911,0.43955 3.70881,-0.29611 1.10215,-0.73812 1.74405,-1.9894 1.69602,-3.31401 l -0.45475,-13.06173 c 0.84433,-0.67518 1.68061,-1.35493 2.50476,-2.05776 l 12.71808,2.99568 c 1.29177,0.30314 2.64683,-0.0733 3.57963,-1.01647 0.9404,-0.93786 1.32188,-2.28523 1.01854,-3.57446 L 223.86127,188.035 c 0.69768,-0.82667 1.38532,-1.65796 2.05775,-2.50734 l 13.05915,0.45785 c 1.31702,0.0492 2.57584,-0.59178 3.31143,-1.69654 0.73819,-1.10216 0.85189,-2.50505 0.29817,-3.71088 l -5.4069,-11.86336 c 0.52819,-0.95812 1.04612,-1.91914 1.54667,-2.89491 l 12.86744,-2.0929 c 1.30941,-0.20958 2.41159,-1.08437 2.91713,-2.31045 0.50568,-1.22101 0.34632,-2.61899 -0.42943,-3.6959 l -7.61194,-10.57455 c 0.32845,-1.04406 0.64977,-2.09296 0.9555,-3.14968 l 12.20235,-4.56303 c 1.2412,-0.46489 2.15632,-1.5341 2.40916,-2.836 0.26304,-1.29936 -0.17222,-2.63684 -1.14257,-3.53932 l -9.54515,-8.90592 c 0.11605,-1.07438 0.22221,-2.15653 0.31574,-3.23597 l 11.10733,-6.87555 c 1.12494,-0.69276 1.81023,-1.92376 1.81023,-3.24838 0,-1.32468 -0.68304,-2.55582 -1.80764,-3.25097 l 5.3e-4,-5.3e-4 -11.10785,-6.87606 c -0.0935,-1.081974 -0.1997,-2.161085 -0.31574,-3.235465 l 9.54567,-8.903332 c 0.97071,-0.904949 1.40546,-2.245072 1.14256,-3.541903 -0.25529,-1.301898 -1.16795,-2.373363 -2.40915,-2.836003 l -12.20236,-4.563028 c -0.30595,-1.056661 -0.62655,-2.105678 -0.9555,-3.149679 l 7.61143,-10.571964 c 0.77601,-1.07438 0.93555,-2.472402 0.42994,-3.698481 -0.50568,-1.220941 -1.61069,-2.095595 -2.91765,-2.310455 l -12.86691,-2.093413 c -0.50076,-0.97577 -1.02141,-1.936247 -1.54719,-2.889229 l 5.4074,-11.868512 c 0.55351,-1.20836 0.4396,-2.613784 -0.29817,-3.710884 -0.73566,-1.10222 -1.98226,-1.747028 -3.31194,-1.696538 l -13.05915,0.455269 c -0.67518,-0.84432 -1.36271,-1.681089 -2.06293,-2.502689 l 3.00086,-12.720671 c 0.30312,-1.29176 -0.0779,-2.644349 -1.01855,-3.58221 -0.93279,-0.935339 -2.28785,-1.321882 -3.57962,-1.018542 l -12.71809,2.998266 c -0.82407,-0.69768 -1.66101,-1.387962 -2.50786,-2.062922 l 0.45785,-13.0591517 c 0.0493,-1.3221499 -0.59408,-2.5788823 -1.69601,-3.31194245 -1.1047,-0.73819992 -2.503,-0.84912675 -3.70882,-0.3007569 L 190.22249,5.8998624 c -0.9581,-0.5260684 -1.91851,-1.0461889 -2.88922,-1.5492589 l -2.0991,-12.8694986 c -0.2124,-1.3043601 -1.08691,-2.4121109 -2.31046,-2.9176509 -1.22094,-0.50779 -2.62152,-0.343692 -3.69589,0.429947 l -10.5792,7.611422 c -1.04154,-0.3312594 -2.08831,-0.6497934 -3.14503,-0.9529132 L 160.94108,-16.55303 c -0.46278,-1.24373 -1.53463,-2.155976 -2.83652,-2.413806 -1.29937,-0.25531 -2.63684,0.177206 -3.53932,1.142566 l -8.90333,9.5529051 c -1.07437,-0.1188501 -2.15602,-0.2271231 -3.23546,-0.3157429 l -6.87607,-11.1104332 c -0.69487,-1.12487 -1.92635,-1.809708 -3.25096,-1.809708 z M 131.6824,1.891322 c 0.12564,-0.00308 0.2511,-0.00292 0.37672,0 2.01002,0.046761 4.0032,0.8615561 5.50354,2.4313761 2.9956,3.1473103 2.88159,8.1248189 -0.26045,11.1254189 -3.13464,3.0032 -8.10725,2.887186 -11.10785,-0.257866 -2.99299,-3.14216 -2.87886,-8.1196073 0.26045,-11.1228343 1.46934,-1.4077174 3.34295,-2.1298823 5.22759,-2.1760947 z m 18.43143,12.950631 c 28.36595,5.280869 52.38137,22.938388 66.2218,47.16353 l -9.26714,20.93102 c -1.60024,3.62254 0.0352,7.859228 3.64526,9.46454 l 17.8418,7.925097 c 0.30805,3.16749 0.46974,6.36799 0.46974,9.6113 h 5.3e-4 c 0.007,0.17981 0.0129,0.35965 0.0186,0.5395 -0.0123,0.88724 -0.0369,1.77427 -0.0739,2.66082 -0.0437,1.33325 -0.11156,2.66016 -0.2098,3.98115 h -0.0744 c -1.31654,18.60473 -8.03138,36.42144 -19.32181,51.26716 -0.83701,1.10205 -1.69854,2.18527 -2.58176,3.24993 -0.52859,0.6842 -1.06642,1.36123 -1.61334,2.03088 h -0.11885 c -1.21921,1.39007 -2.47575,2.74694 -3.77135,4.06487 L 184.658,174.15936 c -3.87024,-0.8292 -7.67732,1.63293 -8.50645,5.51077 l -3.94343,18.40353 c -12.16945,5.52359 -25.68419,8.59224 -39.91644,8.59224 -14.55835,0 -28.36564,-3.22015 -40.752546,-8.97878 l -3.941363,-18.40353 c -0.829199,-3.87277 -4.636159,-6.33985 -8.503872,-5.50819 l -16.24707,3.48816 C 51.893561,166.05729 43.125669,149.63785 39.285457,136.4707 h -0.03928 c -0.682474,-2.3991 -1.271511,-4.83716 -1.769917,-7.30808 -0.05732,-0.22803 -0.113826,-0.45627 -0.1695,-0.68471 h 0.03101 c -1.165315,-6.00148 -1.777154,-12.20017 -1.777154,-18.54047 0,-3.51128 0.189841,-6.98251 0.553456,-10.392647 L 53.038623,92.024321 C 56.22668,90.60865 57.871507,87.146355 57.11486,83.863579 L 47.777444,62.935141 c 3.550531,-6.293485 7.790315,-12.172365 12.64109,-17.52813 H 60.233532 C 74.152375,29.872882 93.015357,18.868393 114.35116,14.864173 l 12.099,12.692766 c 2.73517,2.86416 7.26488,2.97062 10.12651,0.233061 z M 38.010599,73.016179 c 3.06148,-0.0531 6.000885,1.697749 7.320484,4.679817 1.759471,3.97138 -0.02813,8.625449 -3.996656,10.382314 -3.966384,1.761995 -8.607925,-0.02839 -10.367325,-4.004408 -1.759466,-3.97391 0.02819,-8.620318 3.996653,-10.382311 0.992214,-0.439851 2.026351,-0.657712 3.046844,-0.675412 z m 187.729111,0.383439 c 1.02033,0.0177 2.05423,0.235942 3.0458,0.676444 3.96633,1.75939 5.75606,6.410931 3.99666,10.382311 -1.75694,3.973912 -6.39797,5.765821 -10.36681,4.003892 -3.96125,-1.759471 -5.75146,-6.407941 -3.99459,-10.38438 1.31771,-2.978536 4.25793,-4.731366 7.31894,-4.678267 z M 73.602224,183.73707 c 3.653994,-0.0321 6.953134,2.50355 7.749397,6.22184 0.907548,4.24693 -1.792332,8.43302 -6.031672,9.3431 -4.24194,0.91508 -8.418083,-1.78945 -9.330697,-6.03891 -0.907479,-4.25706 1.789803,-8.43571 6.031674,-9.35085 0.530233,-0.11344 1.059299,-0.17059 1.581298,-0.17518 z m 116.545856,0.38189 c 0.52175,0.005 1.05035,0.0629 1.58027,0.17725 4.24187,0.90755 6.94427,5.09667 6.03425,9.34361 -0.91008,4.24693 -5.09136,6.95421 -9.33069,6.04666 -4.24187,-0.91508 -6.93918,-5.09639 -6.02909,-9.35085 0.79404,-3.71828 4.093,-6.25391 7.74526,-6.21667 z"
       id="path3"
       inkscape:connector-curvature="0"
       sodipodi:nodetypes="scccccccccccccccccccccccccccccccccccccccscccccccccccccccccccccccccccccccccccccccscccccccccccccccccccccccccccccccccccccccsccccccccccccccccccccccccccccccccccccccccsccccccccccccccccccccccccccscccccccccsccccccccccsccccssccccscccccccccccc" />
  </g>
</svg>
